<svg id="green_leaaf1" xmlns="http://www.w3.org/2000/svg" viewBox="0 0 101.52 94.68"><defs><style>.cls-1{fill:#4c939d;}.cls-2{fill:#fff;}.cls-3{fill:#cc3a69;opacity:0.7;}.cls-4{fill:#d64974;}</style></defs><title>logo</title><path class="cls-1" d="M78.11,4.5a28.45,28.45,0,1,0,0,56.9h28.45V29.88h-6.35V55.16H78.11a22.16,22.16,0,0,1,0-44.32h28.45V4.5Z" transform="translate(-28.9 -4.5)"/><path class="cls-2" d="M62.36,32.07A15.76,15.76,0,0,0,78.11,47.83H93.87V28.9H78.11a3.17,3.17,0,0,0,0,6.35h9.52v6.35H78.11a9.52,9.52,0,0,1,0-19h28.45V16.21H78.11A15.85,15.85,0,0,0,62.36,32.07Z" transform="translate(-28.9 -4.5)"/><rect class="cls-3" x="8.35" y="69.77" width="84.82" height="13.64"/><rect class="cls-4" y="69.41" width="101.52" height="0.36"/><rect class="cls-4" y="83.41" width="101.52" height="0.36"/><rect class="cls-4" x="8.07" y="57.8" width="0.36" height="36.87"/><rect class="cls-4" x="93.07" y="57.8" width="0.36" height="36.87"/><path class="cls-2" d="M46.36,79.08v-.26a.28.28,0,0,1,.05-.19.18.18,0,0,1,.27,0,.28.28,0,0,1,.05.19v1a.29.29,0,0,1-.05.19.17.17,0,0,1-.13.06.17.17,0,0,1-.12-.05.27.27,0,0,1-.06-.17.89.89,0,0,0-.4-.65,1.86,1.86,0,0,0-1.16-.39A1.77,1.77,0,0,0,44,79a1.34,1.34,0,0,0-.45.33,2.84,2.84,0,0,0-.46.76,1.85,1.85,0,0,0-.12.69v.65a2,2,0,0,0,.6,1.43,1.89,1.89,0,0,0,1.39.61,1.73,1.73,0,0,0,.85-.21,2.62,2.62,0,0,0,.73-.62.21.21,0,0,1,.17-.09.17.17,0,0,1,.13,0,.17.17,0,0,1,0,.12q0,.1-.19.31a2.42,2.42,0,0,1-.81.61,2.18,2.18,0,0,1-.91.2,2.32,2.32,0,0,1-.81-.15,2,2,0,0,1-.52-.28,3.27,3.27,0,0,1-.51-.53,2.4,2.4,0,0,1-.41-.69,2.14,2.14,0,0,1-.11-.7v-.75a2.42,2.42,0,0,1,.29-1.11,2.12,2.12,0,0,1,.8-.87,2.1,2.1,0,0,1,1.1-.3A2.21,2.21,0,0,1,46.36,79.08Z" transform="translate(-28.9 -4.5)"/><path class="cls-2" d="M53.84,81.16a3.16,3.16,0,0,1-.3,1.37,2.37,2.37,0,0,1-.82,1,2,2,0,0,1-1.13.35A2.06,2.06,0,0,1,50,83.1a3.13,3.13,0,0,1,0-3.89,2.06,2.06,0,0,1,1.57-.76,2,2,0,0,1,1.13.35,2.4,2.4,0,0,1,.82,1A3.14,3.14,0,0,1,53.84,81.16Zm-.37,0a2.67,2.67,0,0,0-.52-1.62,1.61,1.61,0,0,0-1.35-.72,1.66,1.66,0,0,0-1.33.68,2.54,2.54,0,0,0-.55,1.65,2.44,2.44,0,0,0,.58,1.68,1.71,1.71,0,0,0,1.3.65,1.61,1.61,0,0,0,1.35-.71A2.67,2.67,0,0,0,53.47,81.16Z" transform="translate(-28.9 -4.5)"/><path class="cls-2" d="M58.67,82.17h-.42l-1.42-3.23h-.07v4.4h.68a.28.28,0,0,1,.19.05.17.17,0,0,1,.06.13.17.17,0,0,1-.06.13.27.27,0,0,1-.19.05H56.07a.27.27,0,0,1-.19-.05.17.17,0,0,1-.06-.13.17.17,0,0,1,.06-.13.28.28,0,0,1,.19-.05h.31v-4.4h-.23a.28.28,0,0,1-.19-.05.19.19,0,0,1,0-.27.28.28,0,0,1,.19-.05h.91l1.4,3.18,1.38-3.18h.9a.29.29,0,0,1,.19.05.18.18,0,0,1,0,.27.29.29,0,0,1-.19.05h-.23v4.4h.31a.29.29,0,0,1,.19.05.17.17,0,0,1,.06.13.17.17,0,0,1-.06.13.29.29,0,0,1-.19.05H59.46a.29.29,0,0,1-.19-.05.18.18,0,0,1,0-.27.29.29,0,0,1,.19-.05h.68v-4.4h-.08Z" transform="translate(-28.9 -4.5)"/><path class="cls-2" d="M65.45,78.94v4.4h1.27a.28.28,0,0,1,.19.05.17.17,0,0,1,.06.13.17.17,0,0,1-.06.13.28.28,0,0,1-.19.05h-2.9a.27.27,0,0,1-.19-.05.17.17,0,0,1-.06-.13.17.17,0,0,1,.06-.13.28.28,0,0,1,.19-.05h1.27v-4.4H63.82a.28.28,0,0,1-.19-.05.18.18,0,0,1,0-.27.28.28,0,0,1,.19-.05h2.9a.28.28,0,0,1,.19.05.19.19,0,0,1,0,.27.28.28,0,0,1-.19.05Z" transform="translate(-28.9 -4.5)"/><path class="cls-2" d="M73.91,83.71h-.47l-2.72-4.6v4.23h.68a.29.29,0,0,1,.19.05.17.17,0,0,1,.06.13.17.17,0,0,1-.06.13.28.28,0,0,1-.19.05H70a.28.28,0,0,1-.19-.05.17.17,0,0,1-.06-.13.17.17,0,0,1,.06-.13.29.29,0,0,1,.19-.05h.31v-4.4h-.5a.28.28,0,0,1-.19-.05.18.18,0,0,1,0-.27.28.28,0,0,1,.19-.05h1l2.72,4.61V78.94h-.68a.28.28,0,0,1-.19-.05.17.17,0,0,1-.06-.13.17.17,0,0,1,.05-.13.28.28,0,0,1,.19-.05h1.36a.28.28,0,0,1,.19.05.19.19,0,0,1,0,.27.28.28,0,0,1-.19.05h-.31Z" transform="translate(-28.9 -4.5)"/><path class="cls-2" d="M81,81.81v1.58a4,4,0,0,1-.84.35,3.07,3.07,0,0,1-.84.12,2.86,2.86,0,0,1-1-.18,2.14,2.14,0,0,1-.76-.49,2.36,2.36,0,0,1-.49-.71,2.45,2.45,0,0,1-.17-1v-.68a2.51,2.51,0,0,1,.3-1.18,2.13,2.13,0,0,1,.82-.88,2.23,2.23,0,0,1,1.14-.3,2.35,2.35,0,0,1,1.51.49,1.14,1.14,0,0,1,0-.26.15.15,0,0,1,.06-.08.19.19,0,0,1,.11,0,.17.17,0,0,1,.13.06.27.27,0,0,1,.05.19v.83a.28.28,0,0,1-.05.19.18.18,0,0,1-.13.05.17.17,0,0,1-.13-.05.26.26,0,0,1-.05-.18.77.77,0,0,0-.49-.61,2.15,2.15,0,0,0-1-.24,1.9,1.9,0,0,0-.92.22,2.11,2.11,0,0,0-.77.85,1.81,1.81,0,0,0-.24.93v.67a1.93,1.93,0,0,0,.56,1.46,2.15,2.15,0,0,0,1.55.54,2.54,2.54,0,0,0,.62-.07,3.69,3.69,0,0,0,.67-.25V81.81H79.31a.28.28,0,0,1-.19-.05.17.17,0,0,1-.06-.13.18.18,0,0,1,.06-.14.27.27,0,0,1,.19-.05h1.78a.28.28,0,0,1,.19.05.17.17,0,0,1,.06.13.18.18,0,0,1,0,.11.17.17,0,0,1-.08.06Z" transform="translate(-28.9 -4.5)"/><path class="cls-2" d="M93.95,78.94v-.12a.28.28,0,0,1,0-.19.17.17,0,0,1,.13-.06.17.17,0,0,1,.13.06.28.28,0,0,1,.05.19v.94a.29.29,0,0,1-.05.19.17.17,0,0,1-.13.06A.17.17,0,0,1,94,80a.25.25,0,0,1-.05-.17.93.93,0,0,0-.38-.66,1.65,1.65,0,0,0-1.91,0,1,1,0,0,0-.36.74.79.79,0,0,0,.1.4.83.83,0,0,0,.27.29,1.5,1.5,0,0,0,.38.18,5.14,5.14,0,0,0,.66.14,4.79,4.79,0,0,1,1,.25,1.23,1.23,0,0,1,.77,1.19A1.39,1.39,0,0,1,94,83.41a2,2,0,0,1-1.36.45,2,2,0,0,1-1.54-.6v.21a.29.29,0,0,1,0,.19.17.17,0,0,1-.13.06.17.17,0,0,1-.13-.06.28.28,0,0,1-.05-.19v-1a.29.29,0,0,1,.05-.19.19.19,0,0,1,.26,0,.25.25,0,0,1,.05.17,1,1,0,0,0,.43.74,1.71,1.71,0,0,0,1.11.33,1.62,1.62,0,0,0,1.1-.35,1.05,1.05,0,0,0,.4-.82A.9.9,0,0,0,94,81.8a1,1,0,0,0-.46-.36,4.68,4.68,0,0,0-.88-.21,3,3,0,0,1-1.32-.47,1.08,1.08,0,0,1-.4-.9,1.3,1.3,0,0,1,.46-1,1.76,1.76,0,0,1,1.22-.42A2,2,0,0,1,93.95,78.94Z" transform="translate(-28.9 -4.5)"/><path class="cls-2" d="M101.72,81.16a3.16,3.16,0,0,1-.3,1.37,2.36,2.36,0,0,1-.82,1,2,2,0,0,1-1.13.35,2.06,2.06,0,0,1-1.57-.76,3.13,3.13,0,0,1,0-3.89,2.06,2.06,0,0,1,1.57-.76,2,2,0,0,1,1.12.35,2.4,2.4,0,0,1,.82,1A3.14,3.14,0,0,1,101.72,81.16Zm-.37,0a2.68,2.68,0,0,0-.52-1.62,1.61,1.61,0,0,0-1.35-.72,1.66,1.66,0,0,0-1.33.68,2.54,2.54,0,0,0-.55,1.65,2.44,2.44,0,0,0,.58,1.68,1.71,1.71,0,0,0,1.3.65,1.61,1.61,0,0,0,1.35-.71A2.67,2.67,0,0,0,101.35,81.16Z" transform="translate(-28.9 -4.5)"/><path class="cls-2" d="M108.56,81.16a3.16,3.16,0,0,1-.3,1.37,2.36,2.36,0,0,1-.82,1,2,2,0,0,1-1.13.35,2.06,2.06,0,0,1-1.57-.76,3.13,3.13,0,0,1,0-3.89,2.06,2.06,0,0,1,1.57-.76,2,2,0,0,1,1.13.35,2.4,2.4,0,0,1,.82,1A3.14,3.14,0,0,1,108.56,81.16Zm-.37,0a2.68,2.68,0,0,0-.52-1.62,1.61,1.61,0,0,0-1.35-.72,1.66,1.66,0,0,0-1.33.68,2.54,2.54,0,0,0-.55,1.65,2.44,2.44,0,0,0,.58,1.68,1.71,1.71,0,0,0,1.3.65,1.61,1.61,0,0,0,1.35-.71A2.67,2.67,0,0,0,108.19,81.16Z" transform="translate(-28.9 -4.5)"/><path class="cls-2" d="M115,83.71h-.47l-2.72-4.6v4.23h.68a.29.29,0,0,1,.19.05.17.17,0,0,1,.06.13.17.17,0,0,1-.06.13.28.28,0,0,1-.19.05h-1.36a.28.28,0,0,1-.19-.05.17.17,0,0,1-.06-.13.17.17,0,0,1,.06-.13.29.29,0,0,1,.19-.05h.31v-4.4h-.5a.28.28,0,0,1-.19-.05.18.18,0,0,1,0-.27.28.28,0,0,1,.19-.05h1l2.72,4.61V78.94h-.68a.28.28,0,0,1-.19-.05.17.17,0,0,1-.06-.13.17.17,0,0,1,.05-.13.28.28,0,0,1,.19-.05h1.36a.28.28,0,0,1,.19.05.19.19,0,0,1,0,.27.28.28,0,0,1-.19.05H115Z" transform="translate(-28.9 -4.5)"/></svg>